# xmcd
#
# Track frame offsets:
#	150
#	8849
#	20910
#	26088
#	32479
#	43050
#	46683
#	58693
#	63096
#	69618
#	78371
#	90444
#	99356
#	114755
#	118112
#	130963
#	135470
#	144707
#	154357
#	165891
#	174924
#	178570
#	185447
#
# Disc length: 2664 seconds
#
# Revision: 1
# Processed by: cddbd v1.5.1PL2 Copyright (c) Steve Scherf et al.
# Submitted via: audiograbber 1.83.01
#
DISCID=260a6617
DTITLE=국악동요제 입상작 2 - 국립국악원 - 햇빛소리 맑은소리
DYEAR=2001
DGENRE=Korean kid's song
TTITLE0=세상 달궁
TTITLE1=방아타령
TTITLE2=방안의 꽃
TTITLE3=우리 형제
TTITLE4=또 잊으셨나
TTITLE5=냄새
TTITLE6=외갓집
TTITLE7=이닦기 노래
TTITLE8=시계
TTITLE9=무말랭이
TTITLE10=내가 지은 집
TTITLE11=끼리끼리
TTITLE12=개구쟁이 산복이
TTITLE13=꾀꼬리 노래
TTITLE14=햇빛 소리
TTITLE15=그네
TTITLE16=굴렁쇠
TTITLE17=연
TTITLE18=팽이치기
TTITLE19=썰매
TTITLE20=제기차기
TTITLE21=얼레꼴레
TTITLE22=꿈보따리 희망보따리
EXTD=
EXTT0=
EXTT1=
EXTT2=
EXTT3=
EXTT4=
EXTT5=
EXTT6=
EXTT7=
EXTT8=
EXTT9=
EXTT10=
EXTT11=
EXTT12=
EXTT13=
EXTT14=
EXTT15=
EXTT16=
EXTT17=
EXTT18=
EXTT19=
EXTT20=
EXTT21=
EXTT22=
PLAYORDER=
